jumper10dof24musc_withArms.osim_states
version=1
nRows=4
nColumns=101
inDegrees=yes

# SIMM Motion File Header:
name jumper10dof24musc_withArms.osim_states
datacolumns 101
datarows 4
otherdata 1
range 0.32736624 0.32859391
endheader
time	pelvis_tilt	pelvis_tx	pelvis_ty	hip_flexion_r	knee_angle_r	ankle_angle_r	hip_flexion_l	knee_angle_l	ankle_angle_l	lumbar_extension	lumbar_bending	lumbar_rotation	arm_flex_r	arm_add_r	arm_rot_r	elbow_flex_r	pro_sup_r	wrist_flex_r	wrist_dev_r	arm_flex_l	arm_add_l	arm_rot_l	elbow_flex_l	pro_sup_l	wrist_flex_l	wrist_dev_l	pelvis_tilt_u	pelvis_tx_u	pelvis_ty_u	hip_flexion_r_u	knee_angle_r_u	ankle_angle_r_u	hip_flexion_l_u	knee_angle_l_u	ankle_angle_l_u	lumbar_extension_u	lumbar_bending_u	lumbar_rotation_u	arm_flex_r_u	arm_add_r_u	arm_rot_r_u	elbow_flex_r_u	pro_sup_r_u	wrist_flex_r_u	wrist_dev_r_u	arm_flex_l_u	arm_add_l_u	arm_rot_l_u	elbow_flex_l_u	pro_sup_l_u	wrist_flex_l_u	wrist_dev_l_u	hamstrings_r.activation	hamstrings_r.fiber_length	bifemsh_r.activation	bifemsh_r.fiber_length	glut_max_r.activation	glut_max_r.fiber_length	iliopsoas_r.activation	iliopsoas_r.fiber_length	rect_fem_r.activation	rect_fem_r.fiber_length	vasti_r.activation	vasti_r.fiber_length	gastroc_r.activation	gastroc_r.fiber_length	soleus_r.activation	soleus_r.fiber_length	tib_ant_r.activation	tib_ant_r.fiber_length	ercspn_r.activation	ercspn_r.fiber_length	intobl_r.activation	intobl_r.fiber_length	extobl_r.activation	extobl_r.fiber_length	hamstrings_l.activation	hamstrings_l.fiber_length	bifemsh_l.activation	bifemsh_l.fiber_length	glut_max_l.activation	glut_max_l.fiber_length	iliopsoas_l.activation	iliopsoas_l.fiber_length	rect_fem_l.activation	rect_fem_l.fiber_length	vasti_l.activation	vasti_l.fiber_length	gastroc_l.activation	gastroc_l.fiber_length	soleus_l.activation	soleus_l.fiber_length	tib_ant_l.activation	tib_ant_l.fiber_length	ercspn_l.activation	ercspn_l.fiber_length	intobl_l.activation	intobl_l.fiber_length	extobl_l.activation	extobl_l.fiber_length
      0.32736624	    -68.73590351	     -0.13350265	      0.28593370	    191.46836307	   -116.61613287	    -29.62716956	    191.72327722	   -117.08811157	    -29.86855158	     29.30238299	      0.00057873	     -0.00001472	     13.27272095	     -4.00000000	     90.00000000	      0.00000000	      0.00000000	     -0.00000000	      0.00000000	     13.27259668	     -4.00000000	     90.00000000	      0.00000000	     -0.00000000	     -0.00000000	      0.00000000	    -30.40205688	     -0.67432753	     -1.81200602	    173.67762861	    -39.57944310	    115.76038466	    173.92431613	    -38.94261832	    111.71134799	    -24.73686376	      0.00039862	     -0.00290285	    183.28853345	      0.00000000	      0.00000000	      0.00000000	     -0.00000000	     -0.00000000	      0.00000000	    183.28471068	     -0.00000000	      0.00000000	      0.00000000	     -0.00000000	     -0.00000000	      0.00000000	      0.00000000	      0.10962035	      0.56307848	      0.12126575	      0.00000000	      0.11844517	      0.00000000	      0.09401369	      0.55121051	      0.11647644	      0.00000000	      0.13827196	      0.00000000	      0.03895349	      0.62828941	      0.02402992	      0.47605944	      0.09931033	      0.57640689	      0.09433432	      0.46013458	      0.12262595	      0.45523853	      0.15521142	      0.00000000	      0.10934791	      0.56307848	      0.12121952	      0.00000000	      0.11826546	      0.00000000	      0.09416139	      0.55121051	      0.11686936	      0.00000000	      0.13843867	      0.00000000	      0.03875182	      0.62828941	      0.02394625	      0.47605932	      0.09947489	      0.57640689	      0.09433515	      0.46013458	      0.12262765	      0.45523853	      0.15521268
      0.32774723	    -68.74746298	     -0.13375960	      0.28524290	    191.53498092	   -116.63177498	    -29.58159069	    191.78998038	   -117.10352278	    -29.82443194	     29.29296888	      0.00057888	     -0.00001583	     13.34257940	     -4.00000000	     90.00000000	      0.00000000	      0.00000000	     -0.00000000	      0.00000000	     13.34245367	     -4.00000000	     90.00000000	      0.00000000	     -0.00000000	     -0.00000000	      0.00000000	    -30.28006715	     -0.67452370	     -1.81428458	    176.03566514	    -42.58320182	    123.63840572	    176.23855677	    -42.02003951	    120.06916053	    -24.67861198	      0.00039764	     -0.00289481	    183.42633890	      0.00000000	      0.00000000	      0.00000000	     -0.00000000	     -0.00000000	      0.00000000	    183.42252627	     -0.00000000	      0.00000000	      0.00000000	     -0.00000000	     -0.00000000	      0.00000000	      0.00000000	      0.10956497	      0.56309682	      0.12126397	      0.00000000	      0.11839971	      0.00000000	      0.09405182	      0.55114719	      0.11652987	      0.00000000	      0.13827706	      0.00000000	      0.03897777	      0.62806796	      0.02404678	      0.47607280	      0.09925322	      0.57630970	      0.09434279	      0.46009024	      0.12261926	      0.45523192	      0.15520693	      0.00000000	      0.10929222	      0.56309682	      0.12121781	      0.00000000	      0.11821975	      0.00000000	      0.09419949	      0.55114719	      0.11692252	      0.00000000	      0.13844367	      0.00000000	      0.03877506	      0.62806796	      0.02396249	      0.47607268	      0.09941744	      0.57630970	      0.09434361	      0.46009024	      0.12262096	      0.45523192	      0.15520818
      0.32812822	    -68.75897775	     -0.13401662	      0.28455124	    191.60250370	   -116.64860513	    -29.53290605	    191.85757375	   -117.12016325	    -29.77697918	     29.28358040	      0.00057903	     -0.00001693	     13.41248819	     -4.00000000	     90.00000000	      0.00000000	      0.00000000	     -0.00000000	      0.00000000	     13.41236101	     -4.00000000	     90.00000000	      0.00000000	     -0.00000000	     -0.00000000	      0.00000000	    -30.16764901	     -0.67467128	     -1.81655757	    178.42308185	    -45.77981031	    131.93779106	    178.59224879	    -45.35736126	    129.07599622	    -24.60299851	      0.00039673	     -0.00288684	    183.55412697	      0.00000000	      0.00000000	      0.00000000	     -0.00000000	     -0.00000000	      0.00000000	    183.55032448	     -0.00000000	      0.00000000	      0.00000000	     -0.00000000	     -0.00000000	      0.00000000	      0.00000000	      0.10950897	      0.56311465	      0.12126221	      0.00000000	      0.11835364	      0.00000000	      0.09409045	      0.55108467	      0.11658444	      0.00000000	      0.13828248	      0.00000000	      0.03900327	      0.62784958	      0.02406373	      0.47608575	      0.09919748	      0.57621377	      0.09435128	      0.46004640	      0.12261251	      0.45522537	      0.15520239	      0.00000000	      0.10923596	      0.56311465	      0.12121613	      0.00000000	      0.11817344	      0.00000000	      0.09423809	      0.55108467	      0.11697685	      0.00000000	      0.13844899	      0.00000000	      0.03879952	      0.62784958	      0.02397880	      0.47608564	      0.09936142	      0.57621377	      0.09435211	      0.46004640	      0.12261422	      0.45522537	      0.15520365
      0.32859391	    -68.77299713	     -0.13433085	      0.28370465	    191.68627294	   -116.67083294	    -29.46916622	    191.94141429	   -117.14224842	    -29.71432170	     29.27214808	      0.00057921	     -0.00001827	     13.49800238	     -4.00000000	     90.00000000	      0.00000000	      0.00000000	     -0.00000000	      0.00000000	     13.49787343	     -4.00000000	     90.00000000	      0.00000000	     -0.00000000	     -0.00000000	      0.00000000	    -30.04463666	     -0.67486748	     -1.81932584	    181.34102273	    -49.65272405	    141.64087018	    181.47980883	    -49.47358346	    139.89335295	    -24.49336850	      0.00039565	     -0.00287713	    183.70777843	      0.00000000	      0.00000000	      0.00000000	     -0.00000000	     -0.00000000	      0.00000000	    183.70398834	     -0.00000000	      0.00000000	      0.00000000	     -0.00000000	     -0.00000000	      0.00000000	      0.00000000	      0.10943961	      0.56313577	      0.12126006	      0.00000000	      0.11829646	      0.00000000	      0.09413835	      0.55100932	      0.11665276	      0.00000000	      0.13828962	      0.00000000	      0.03903661	      0.62758676	      0.02408484	      0.47610104	      0.09913093	      0.57609821	      0.09436169	      0.45999349	      0.12260419	      0.45521748	      0.15519680	      0.00000000	      0.10916632	      0.56313577	      0.12121407	      0.00000000	      0.11811598	      0.00000000	      0.09428594	      0.55100932	      0.11704490	      0.00000000	      0.13845602	      0.00000000	      0.03883169	      0.62758676	      0.02399912	      0.47610093	      0.09929461	      0.57609821	      0.09436251	      0.45999349	      0.12260590	      0.45521748	      0.15519806
